<svg width="25" height="22" viewBox="0 0 25 22" fill="none" xmlns="http://www.w3.org/2000/svg">
<path d="M4.50698 5.8826L8.49561 7.48016C9.87021 3.97653 11.8632 1.28027 13.9252 0.0165724C10.18 -0.193542 6.5511 1.60468 4.21714 4.82043C3.95582 5.18136 4.11324 5.72491 4.50698 5.8826ZM9.67294 7.95195L18.9885 11.6829C20.3853 6.4674 19.7189 1.72886 17.3233 0.769806C17.0342 0.653792 16.7322 0.597933 16.4213 0.597933C14.1549 0.598363 11.4108 3.57005 9.67294 7.95195ZM20.3701 2.59983C20.6131 3.30021 20.7931 4.08653 20.8857 4.97124C21.1099 7.11493 20.8302 9.6217 20.1455 12.1461L24.154 13.7514C24.5482 13.9091 24.9864 13.604 24.9966 13.1425C25.0872 9.03088 23.3595 5.08855 20.3701 2.59983ZM21.8748 19.2492H12.5413L15.078 11.5802L12.7288 10.6392L9.88114 19.2487H0.624993C0.279684 19.2487 0 19.5564 0 19.9367V21.3121C0 21.6919 0.279684 22 0.624993 22H21.8748C22.2201 22 22.4998 21.6919 22.4998 21.3121V19.9367C22.4998 19.5568 22.2201 19.2492 21.8748 19.2492Z" fill="#1E6054"/>
</svg>
